<svg width="14" height="14" viewBox="0 0 14 14" fill="none" xmlns="http://www.w3.org/2000/svg">
<path d="M1.22698 11.7929C0.836451 12.1834 0.836451 12.8166 1.22698 13.2071C1.6175 13.5976 2.25066 13.5976 2.64119 13.2071L1.22698 11.7929ZM13.9341 1.5C13.9341 0.947715 13.4864 0.5 12.9341 0.5L3.93408 0.500001C3.3818 0.5 2.93408 0.947716 2.93408 1.5C2.93408 2.05228 3.3818 2.5 3.93408 2.5L11.9341 2.5L11.9341 10.5C11.9341 11.0523 12.3818 11.5 12.9341 11.5C13.4864 11.5 13.9341 11.0523 13.9341 10.5L13.9341 1.5ZM2.64119 13.2071L13.6412 2.20711L12.227 0.792894L1.22698 11.7929L2.64119 13.2071Z" fill="white"/>
</svg>
