<svg width="570" height="469" viewBox="0 0 570 469" fill="none" xmlns="http://www.w3.org/2000/svg">
<path d="M438.527 67.017C386.619 116.063 335.671 76.6528 312.313 49.6345C288.955 22.6162 302.031 18.2212 353.939 -30.825C405.847 -79.8711 466.863 -97.7282 490.221 -70.7099C513.579 -43.6916 490.435 17.9709 438.527 67.017Z" fill="black"/>
<path d="M438.527 67.017C386.619 116.063 335.671 76.6528 312.313 49.6345C288.955 22.6162 302.031 18.2212 353.939 -30.825C405.847 -79.8711 466.863 -97.7282 490.221 -70.7099C513.579 -43.6916 490.435 17.9709 438.527 67.017Z" fill="black"/>
<path d="M438.527 67.017C386.619 116.063 335.671 76.6528 312.313 49.6345C288.955 22.6162 302.031 18.2212 353.939 -30.825C405.847 -79.8711 466.863 -97.7282 490.221 -70.7099C513.579 -43.6916 490.435 17.9709 438.527 67.017Z" fill="black"/>
<path d="M351.533 30.9475C353.605 102.169 370.93 45.1206 335.233 47.8785C299.537 50.6365 300.33 36.8879 225.315 21.6347C223.242 -49.5872 247.449 -90.2596 283.146 -93.0176C318.842 -95.7755 349.46 -40.2744 351.533 30.9475Z" fill="black"/>
<path d="M351.533 30.9475C353.605 102.169 370.93 45.1206 335.233 47.8785C299.537 50.6365 300.33 36.8879 225.315 21.6347C223.242 -49.5872 247.449 -90.2596 283.146 -93.0176C318.842 -95.7755 349.46 -40.2744 351.533 30.9475Z" fill="black"/>
<path d="M351.533 30.9475C353.605 102.169 370.93 45.1206 335.233 47.8785C299.537 50.6365 300.33 36.8879 225.315 21.6347C223.242 -49.5872 247.449 -90.2596 283.146 -93.0176C318.842 -95.7755 349.46 -40.2744 351.533 30.9475Z" fill="black"/>
<path d="M427.104 107.34C462.958 123.218 479.151 165.155 463.273 201.009L350.23 456.262L76.7922 335.165C40.9386 319.287 24.7455 277.35 40.6237 241.497L153.666 -13.7561L427.104 107.34Z" stroke="black" stroke-width="18"/>
<path d="M238.025 106.811L158.885 285.511L135.587 275.193L214.727 96.4935L238.025 106.811ZM417.923 186.482L408.286 208.243L346.585 180.918L277.083 337.857L253.785 327.539L323.288 170.601L261.588 143.276L271.225 121.514L417.923 186.482Z" fill="black"/>
</svg>
